<?xml version="1.0" encoding="UTF-8" standalone="no"?>
<!-- Created with Inkscape (http://www.inkscape.org/) -->

<svg
   xmlns:dc="http://purl.org/dc/elements/1.1/"
   xmlns:cc="http://creativecommons.org/ns#"
   xmlns:rdf="http://www.w3.org/1999/02/22-rdf-syntax-ns#"
   xmlns:svg="http://www.w3.org/2000/svg"
   xmlns="http://www.w3.org/2000/svg"
   xmlns:sodipodi="http://sodipodi.sourceforge.net/DTD/sodipodi-0.dtd"
   xmlns:inkscape="http://www.inkscape.org/namespaces/inkscape"
   width="1052.3622"
   height="744.09448"
   id="svg2"
   version="1.1"
   inkscape:version="0.48.3.1 r9886"
   sodipodi:docname="branding.svg">
  <defs
     id="defs4" />
  <sodipodi:namedview
     id="base"
     pagecolor="#ffffff"
     bordercolor="#666666"
     borderopacity="1.0"
     inkscape:pageopacity="0"
     inkscape:pageshadow="2"
     inkscape:zoom="0.7"
     inkscape:cx="571.94917"
     inkscape:cy="277.43661"
     inkscape:document-units="px"
     inkscape:current-layer="layer1"
     showgrid="false"
     inkscape:window-width="1535"
     inkscape:window-height="876"
     inkscape:window-x="65"
     inkscape:window-y="24"
     inkscape:window-maximized="1"
     showguides="true"
     inkscape:guide-bbox="true" />
  <metadata
     id="metadata7">
    <rdf:RDF>
      <cc:Work
         rdf:about="">
        <dc:format>image/svg+xml</dc:format>
        <dc:type
           rdf:resource="http://purl.org/dc/dcmitype/StillImage" />
        <dc:title></dc:title>
      </cc:Work>
    </rdf:RDF>
  </metadata>
  <g
     inkscape:label="Layer 1"
     inkscape:groupmode="layer"
     id="layer1"
     transform="translate(0,-308.2677)">
    <rect
       style="fill:#d2d2be;fill-opacity:1;stroke:none"
       id="rect4399"
       width="740"
       height="378.76379"
       x="263.71426"
       y="571.79071"
       inkscape:export-filename="/var/www/fnlly/img/pinno_manifesto.png"
       inkscape:export-xdpi="97.184578"
       inkscape:export-ydpi="97.184578"
       rx="21.980198"
       ry="23.380482" />
    <g
       id="g4290"
       inkscape:export-filename="/var/www/fnlly/img/pinno_words.png"
       inkscape:export-xdpi="284.51999"
       inkscape:export-ydpi="284.51999">
      <path
         inkscape:connector-curvature="0"
         id="path4044-9-1"
         d="m 155.24662,531.5501 c -39.61491,0.71372 -77.095103,-28.41029 -86.373367,-66.89334 -9.951023,-36.22122 6.332409,-77.39617 38.308377,-97.07725 33.29033,-21.69553 82.1548,-19.44 110.26346,9.93786 19.148,18.21075 28.62134,43.8811 46.76399,62.8515 9.51749,10.60188 25.59269,11.63814 37.69765,5.17704 3.76144,-2.23532 20.22844,-11.45419 11.7751,-1.63719 -24.54064,25.62744 -53.98468,46.17321 -84.91625,63.32049 -13.43024,5.46215 -27.98735,0.32581 -40.91385,-4.14817 2.73251,7.20951 21.57655,18.4652 4.962,20.66573 -12.09795,4.21364 -24.65283,7.78832 -37.56711,7.80333 z"
         style="fill:#000000;fill-opacity:1;stroke:none" />
      <g
         id="text4137"
         style="font-size:40.99385452px;font-style:normal;font-weight:normal;line-height:125%;letter-spacing:0px;word-spacing:0px;fill:#ffffff;fill-opacity:1;stroke:none;font-family:Sans">
        <path
           id="path4269"
           style="font-size:81.98770905000000653px;font-variant:normal;font-stretch:normal;letter-spacing:-5.12423182000000033px;fill:#ffffff;font-family:'Lobster 1.3';-inkscape-font-specification:'Lobster 1.3'"
           d="m 93.815763,413.07489 c 0.163975,-0.98385 0.245963,-2.04969 0.245963,-3.36149 0,-5.3292 -4.673304,-8.85468 -9.67455,-8.85468 -5.411183,0 -12.462134,2.21368 -14.921763,13.93791 -12.39119,39.25922 -3.898008,36.95999 0.327951,54.0299 l 9.428587,-44.27336 6.06709,0 0.573914,-3.27951 -5.985103,0 1.393791,-6.47703 c 1.147827,-5.49317 3.935412,-6.72299 5.73914,-6.72299 1.639753,0 3.115533,0.90187 3.115533,2.78758 0,0.73789 -0.08199,1.3938 -0.163975,2.21367 l 3.853422,0"
           inkscape:connector-curvature="0"
           sodipodi:nodetypes="csscccccccsscc" />
        <path
           id="path4271"
           style="font-size:81.98770905px;font-variant:normal;font-stretch:normal;letter-spacing:-5.12423182px;fill:#ffffff;font-family:'Lobster 1.3';-inkscape-font-specification:'Lobster 1.3'"
           d="m 115.7052,433.48983 c 0.16398,-0.6559 0.16398,-1.3118 0.16398,-1.9677 0,-5.49317 -5.00126,-10.24847 -9.42859,-10.24847 -3.60746,0 -7.3789,1.96771 -10.740389,4.42734 l 0.983852,-4.42734 -11.80623,0 -8.690697,40.99386 11.80623,0 6.968955,-33.12304 c 1.72174,-1.14782 3.197519,-1.72174 5.165229,-1.72174 2.21366,0 3.77143,1.88572 3.77143,4.83728 0,0.6559 -0.082,1.39379 -0.24596,2.13168 l -3.11553,14.75778 c -0.32796,1.55777 -0.49193,2.86957 -0.49193,4.18138 0,6.14907 3.77144,8.93666 10.16648,8.93666 6.39503,0 12.62611,-8.85468 16.39754,-12.62611 l -2.78759,0 c -3.2795,2.6236 -4.50932,5.16523 -7.78883,5.16523 -3.19752,0 -4.09938,-1.22982 -4.09938,-3.03355 0,-0.81988 0.16397,-1.72174 0.40994,-2.62361 l 3.36149,-15.65965"
           inkscape:connector-curvature="0" />
        <path
           id="path4273"
           style="font-size:81.98770905px;font-variant:normal;font-stretch:normal;letter-spacing:-5.12423182px;fill:#ffffff;font-family:'Lobster 1.3';-inkscape-font-specification:'Lobster 1.3'"
           d="m 124.4292,406.51587 -9.10063,42.63361 c -0.32795,1.55777 -0.49193,2.95156 -0.49193,4.18138 0,6.14907 3.85343,8.93666 10.16648,8.93666 6.39503,0 15.65965,-10.90437 19.43108,-14.6758 l -2.78758,0 c -3.2795,2.6236 -7.54287,7.21492 -10.82238,7.21492 -3.19751,0 -4.09938,-1.22982 -4.09938,-3.03355 0,-0.6559 0.16397,-1.39379 0.40994,-2.62361 l 9.42858,-44.27336 -12.13418,1.63975"
           inkscape:connector-curvature="0" />
        <path
           id="path4275"
           style="font-size:81.98770905px;font-variant:normal;font-stretch:normal;letter-spacing:-5.12423182px;fill:#ffffff;font-family:'Lobster 1.3';-inkscape-font-specification:'Lobster 1.3'"
           d="m 142.68428,406.51587 -9.10064,42.63361 c -0.32795,1.55777 -0.49193,2.95156 -0.49193,4.18138 0,6.14907 3.85343,8.93666 10.16648,8.93666 6.39504,0 15.65966,-10.90437 19.43109,-14.6758 l -2.78758,0 c -3.27951,2.6236 -7.54288,7.21492 -10.82238,7.21492 -3.19752,0 -4.09939,-1.22982 -4.09939,-3.03355 0,-0.6559 0.16398,-1.39379 0.40994,-2.62361 l 9.42859,-44.27336 -12.13418,1.63975"
           inkscape:connector-curvature="0" />
        <path
           id="path4277"
           style="font-size:81.98770905px;font-variant:normal;font-stretch:normal;letter-spacing:-5.12423182px;fill:#ffffff;font-family:'Lobster 1.3';-inkscape-font-specification:'Lobster 1.3'"
           d="m 157.00394,421.27366 -5.73914,27.87582 c -0.32795,1.55777 -0.49193,2.86957 -0.49193,4.18138 0,6.14907 3.77145,8.93666 10.16648,8.93666 3.27951,0 7.46089,-2.95156 11.15033,-6.31306 l -1.22982,5.65716 c -7.78882,2.29565 -14.18387,4.6733 -14.18387,12.29815 0,5.3292 4.6733,8.85467 9.67455,8.85467 5.41118,0 12.46213,-2.21368 14.92176,-13.93791 l 10.0025,-47.55287 -11.88822,0 -6.39504,30.25347 c -2.13167,1.80373 -4.34535,3.27951 -6.23106,3.27951 -3.19752,0 -4.09939,-1.22982 -4.09939,-3.03355 0,-0.81988 0.16398,-1.72174 0.40994,-2.62361 l 5.9851,-27.87582 -12.05219,0 m 4.18137,51.48828 c 0,-4.42733 3.93542,-6.80498 9.10064,-8.52672 l -0.98385,4.83728 c -0.98385,4.83727 -3.19753,6.39504 -4.83728,6.39504 -1.80373,0 -3.27951,-1.55777 -3.27951,-2.7056"
           inkscape:connector-curvature="0" />
        <path
           id="path4279"
           style="font-size:81.98770905px;font-variant:normal;font-stretch:normal;letter-spacing:-5.12423182px;fill:#ffffff;font-family:'Lobster 1.3';-inkscape-font-specification:'Lobster 1.3'"
           d="m 221.0389,406.84383 c 0,-0.90187 -0.6559,-1.14783 -1.55777,-1.14783 -1.55776,0 -3.19752,1.80373 -3.19752,3.36149 0,0.90187 0.32796,1.63976 1.31181,1.80373 -0.40994,4.0174 -2.21367,8.85468 -4.91927,8.85468 -1.9677,0 -3.36149,-0.7379 -3.36149,-3.3615 0,-3.52547 1.72174,-12.62611 6.39504,-12.62611 1.06584,0 1.72174,0.57392 2.13168,1.55777 0.98385,-0.32795 2.13168,-0.81988 2.13168,-2.13168 0,-1.14783 -2.21367,-1.96771 -4.50932,-1.96771 -6.47703,0 -12.46214,4.7553 -12.46214,15.57767 0,5.24721 2.37765,7.2969 7.46089,7.2969 4.42733,0 10.08448,-4.6733 10.57641,-13.85592 1.88572,-1.06584 2.7056,-3.11553 3.19752,-4.6733 l -0.49193,-0.90186 c -1.06583,1.14782 -1.47578,1.88572 -2.70559,2.6236 l 0,-0.40993" />
      </g>
    </g>
    <text
       xml:space="preserve"
       style="font-size:40px;font-style:normal;font-weight:normal;line-height:125%;letter-spacing:0px;word-spacing:0px;fill:#000000;fill-opacity:1;stroke:none;font-family:Sans"
       x="53.000664"
       y="665.36292"
       id="text4193"
       sodipodi:linespacing="125%"><tspan
         sodipodi:role="line"
         id="tspan4195"
         x="53.000664"
         y="665.36292"
         style="font-style:normal;font-variant:normal;font-weight:500;font-stretch:normal;font-family:Century Schoolbook L;-inkscape-font-specification:Century Schoolbook L Medium">fnlly°</tspan></text>
    <text
       sodipodi:linespacing="125%"
       id="text4137-7"
       y="952.62329"
       x="54.500351"
       style="font-size:40.99385452px;font-style:normal;font-weight:normal;line-height:125%;letter-spacing:0px;word-spacing:0px;fill:#000000;fill-opacity:1;stroke:none;font-family:Sans"
       xml:space="preserve"
       inkscape:export-filename="/var/www/fnlly/img/text_logo.png"
       inkscape:export-xdpi="251.69"
       inkscape:export-ydpi="251.69"><tspan
         style="font-size:81.98770905px;font-style:normal;font-variant:normal;font-weight:normal;font-stretch:normal;letter-spacing:-5.12423182px;fill:#000000;font-family:'Lobster 1.3';-inkscape-font-specification:'Lobster 1.3'"
         y="952.62329"
         x="54.500351"
         id="tspan4139-4"
         sodipodi:role="line">fnlly º</tspan></text>
    <g
       id="g4300"
       transform="translate(234.28572,-56.857143)"
       inkscape:export-filename="/var/www/fnlly/img/pinno_manifesto.png"
       inkscape:export-xdpi="97.184578"
       inkscape:export-ydpi="97.184578">
      <path
         inkscape:connector-curvature="0"
         id="path4044-9-1-4"
         d="m 150.76755,913.7212 c -39.61491,0.71372 -77.095095,-28.41029 -86.373359,-66.89334 -9.951023,-36.22122 6.332409,-77.39617 38.308379,-97.07725 33.29032,-21.69553 82.15479,-19.43999 110.26345,9.93786 19.148,18.21075 28.62134,43.8811 46.76399,62.8515 9.51749,10.60188 25.59269,11.63814 37.69765,5.17704 3.76144,-2.23532 20.22844,-11.45419 11.7751,-1.63719 -24.54064,25.62744 -53.98468,46.17321 -84.91625,63.32049 -13.43024,5.46215 -27.98735,0.32581 -40.91385,-4.14817 2.73251,7.20951 21.57655,18.4652 4.962,20.66573 -12.09795,4.21364 -24.65283,7.78832 -37.56711,7.80333 z"
         style="fill:#000000;fill-opacity:1;stroke:none" />
      <g
         transform="translate(-114.28571,-74.285714)"
         id="text4137-4"
         style="font-size:40.99385452px;font-style:normal;font-weight:normal;line-height:125%;letter-spacing:0px;word-spacing:0px;fill:#ffffff;fill-opacity:1;stroke:none;font-family:Sans">
        <path
           inkscape:connector-curvature="0"
           id="path4262"
           style="font-size:81.98770905px;font-variant:normal;font-stretch:normal;letter-spacing:-5.12423182px;fill:#ffffff;font-family:'Lobster 1.3';-inkscape-font-specification:'Lobster 1.3'"
           d="m 330.84554,863.30061 c 0,-0.90186 -0.6559,-1.14783 -1.55777,-1.14783 -1.55776,0 -3.19752,1.80374 -3.19752,3.3615 0,0.90186 0.32796,1.63976 1.31181,1.80373 -0.40994,4.01739 -2.21367,8.85467 -4.91927,8.85467 -1.9677,0 -3.36149,-0.73789 -3.36149,-3.36149 0,-3.52547 1.72175,-12.62611 6.39504,-12.62611 1.06584,0 1.72174,0.57391 2.13168,1.55777 0.98385,-0.32795 2.13168,-0.81988 2.13168,-2.13168 0,-1.14783 -2.21367,-1.96771 -4.50932,-1.96771 -6.47703,0 -12.46213,4.7553 -12.46213,15.57767 0,5.2472 2.37764,7.2969 7.46088,7.2969 4.42733,0 10.08449,-4.67331 10.57641,-13.85592 1.88572,-1.06584 2.7056,-3.11554 3.19752,-4.6733 l -0.49192,-0.90187 c -1.06584,1.14783 -1.47578,1.88572 -2.7056,2.62361 l 0,-0.40994" />
      </g>
    </g>
    <text
       xml:space="preserve"
       style="font-size:50.05541611px;font-style:normal;font-weight:normal;line-height:125%;letter-spacing:0px;word-spacing:0px;fill:#000000;fill-opacity:1;stroke:none;font-family:Sans"
       x="366.91162"
       y="394.05872"
       id="text4323"
       sodipodi:linespacing="125%"><tspan
         sodipodi:role="line"
         x="366.91162"
         y="394.05872"
         id="tspan4329"
         style="font-style:normal;font-variant:normal;font-weight:500;font-stretch:normal;baseline-shift:baseline;font-family:Century Schoolbook L;-inkscape-font-specification:Century Schoolbook L Medium"
         dy="0">all your life you were</tspan><tspan
         sodipodi:role="line"
         x="366.91162"
         y="456.62799"
         id="tspan4343"
         style="font-style:normal;font-variant:normal;font-weight:500;font-stretch:normal;baseline-shift:baseline;font-family:Century Schoolbook L;-inkscape-font-specification:Century Schoolbook L Medium">only waiting for this</tspan><tspan
         sodipodi:role="line"
         x="366.91162"
         y="519.19727"
         id="tspan4345"
         style="font-style:normal;font-variant:normal;font-weight:500;font-stretch:normal;baseline-shift:baseline;font-family:Century Schoolbook L;-inkscape-font-specification:Century Schoolbook L Medium">moment to arise</tspan></text>
    <text
       xml:space="preserve"
       style="font-size:50.05541611px;font-style:normal;font-weight:normal;line-height:125%;letter-spacing:0px;word-spacing:0px;fill:#000000;fill-opacity:1;stroke:none;font-family:Sans"
       x="958.44733"
       y="649.2915"
       id="text4323-7"
       sodipodi:linespacing="125%"
       inkscape:export-filename="/var/www/fnlly/img/pinno_manifesto.png"
       inkscape:export-xdpi="97.184578"
       inkscape:export-ydpi="97.184578"><tspan
         sodipodi:role="line"
         x="958.44733"
         y="649.2915"
         style="font-style:normal;font-variant:normal;font-weight:500;font-stretch:normal;text-align:end;line-height:125%;letter-spacing:0px;word-spacing:0px;text-anchor:end;baseline-shift:baseline;font-family:Century Schoolbook L;-inkscape-font-specification:Century Schoolbook L Medium"
         id="tspan4379">you dreamed big dreams</tspan><tspan
         sodipodi:role="line"
         x="958.44733"
         y="711.86078"
         style="font-style:normal;font-variant:normal;font-weight:500;font-stretch:normal;text-align:end;line-height:125%;letter-spacing:0px;word-spacing:0px;text-anchor:end;baseline-shift:baseline;font-family:Century Schoolbook L;-inkscape-font-specification:Century Schoolbook L Medium"
         id="tspan4387">you told tall stories</tspan><tspan
         sodipodi:role="line"
         x="958.44733"
         y="774.43005"
         style="font-style:normal;font-variant:normal;font-weight:500;font-stretch:normal;text-align:end;line-height:125%;letter-spacing:0px;word-spacing:0px;text-anchor:end;baseline-shift:baseline;font-family:Century Schoolbook L;-inkscape-font-specification:Century Schoolbook L Medium"
         id="tspan4381">now is the time</tspan><tspan
         sodipodi:role="line"
         x="958.44733"
         y="836.99933"
         style="font-style:normal;font-variant:normal;font-weight:500;font-stretch:normal;text-align:end;line-height:125%;letter-spacing:0px;word-spacing:0px;text-anchor:end;baseline-shift:baseline;font-family:Century Schoolbook L;-inkscape-font-specification:Century Schoolbook L Medium"
         id="tspan4389">to do great things</tspan><tspan
         sodipodi:role="line"
         x="958.44739"
         y="899.5686"
         style="font-style:normal;font-variant:normal;font-weight:500;font-stretch:normal;text-align:end;line-height:125%;letter-spacing:0px;word-spacing:0px;text-anchor:end;baseline-shift:baseline;font-family:Century Schoolbook L;-inkscape-font-specification:Century Schoolbook L Medium"
         id="tspan4391">and to get real, finally</tspan></text>
    <g
       id="g3036"
       inkscape:export-filename="/var/www/fnlly/img/pinno_words.png"
       inkscape:export-xdpi="284.51999"
       inkscape:export-ydpi="284.51999">
      <path
         style="fill:#000000;fill-opacity:1;stroke:none"
         d="m 155.24662,531.5501 c -39.61491,0.71372 -77.095103,-28.41029 -86.373367,-66.89334 -9.951023,-36.22122 6.332409,-77.39617 38.308377,-97.07725 33.29033,-21.69553 82.1548,-19.44 110.26346,9.93786 19.148,18.21075 28.62134,43.8811 46.76399,62.8515 9.51749,10.60188 25.59269,11.63814 37.69765,5.17704 3.76144,-2.23532 20.22844,-11.45419 11.7751,-1.63719 -24.54064,25.62744 -53.98468,46.17321 -84.91625,63.32049 -13.43024,5.46215 -27.98735,0.32581 -40.91385,-4.14817 2.73251,7.20951 21.57655,18.4652 4.962,20.66573 -12.09795,4.21364 -24.65283,7.78832 -37.56711,7.80333 z"
         id="path3038"
         inkscape:connector-curvature="0" />
      <g
         style="font-size:40.99385452px;font-style:normal;font-weight:normal;line-height:125%;letter-spacing:0px;word-spacing:0px;fill:#ffffff;fill-opacity:1;stroke:none;font-family:Sans"
         id="g3040">
        <g
           id="g3054">
          <path
             id="path3042"
             style="font-size:81.98770904999997811px;font-variant:normal;font-stretch:normal;letter-spacing:-5.12423182000000033px;fill:#ffffff;font-family:'Lobster 1.3';-inkscape-font-specification:'Lobster 1.3'"
             d="m 93.815763,413.07489 c 0.163975,-0.98385 0.245963,-2.04969 0.245963,-3.36149 0,-5.3292 -4.673304,-8.85468 -9.67455,-8.85468 -5.411183,0 -12.462134,2.21368 -14.921763,13.93791 -7.748333,41.40208 -3.898008,36.95999 0.327951,54.0299 l 9.428587,-44.27336 6.06709,0 0.573914,-3.27951 -5.985103,0 1.393791,-6.47703 c 1.147827,-5.49317 3.935412,-6.72299 5.73914,-6.72299 1.639753,0 3.115533,0.90187 3.115533,2.78758 0,0.73789 -0.08199,1.3938 -0.163975,2.21367 l 3.853422,0"
             inkscape:connector-curvature="0"
             sodipodi:nodetypes="csscccccccsscc" />
          <path
             id="path3044"
             style="font-size:81.98770905px;font-variant:normal;font-stretch:normal;letter-spacing:-5.12423182px;fill:#ffffff;font-family:'Lobster 1.3';-inkscape-font-specification:'Lobster 1.3'"
             d="m 115.7052,433.48983 c 0.16398,-0.6559 0.16398,-1.3118 0.16398,-1.9677 0,-5.49317 -5.00126,-10.24847 -9.42859,-10.24847 -3.60746,0 -7.3789,1.96771 -10.740389,4.42734 l 0.983852,-4.42734 -11.80623,0 -8.690697,40.99386 11.80623,0 6.968955,-33.12304 c 1.72174,-1.14782 3.197519,-1.72174 5.165229,-1.72174 2.21366,0 3.77143,1.88572 3.77143,4.83728 0,0.6559 -0.082,1.39379 -0.24596,2.13168 l -3.11553,14.75778 c -0.32796,1.55777 -0.49193,2.86957 -0.49193,4.18138 0,6.14907 3.77144,8.93666 10.16648,8.93666 6.39503,0 12.62611,-8.85468 16.39754,-12.62611 l -2.78759,0 c -3.2795,2.6236 -4.50932,5.16523 -7.78883,5.16523 -3.19752,0 -4.09938,-1.22982 -4.09938,-3.03355 0,-0.81988 0.16397,-1.72174 0.40994,-2.62361 l 3.36149,-15.65965"
             inkscape:connector-curvature="0" />
          <path
             id="path3046"
             style="font-size:81.98770905px;font-variant:normal;font-stretch:normal;letter-spacing:-5.12423182px;fill:#ffffff;font-family:'Lobster 1.3';-inkscape-font-specification:'Lobster 1.3'"
             d="m 124.4292,406.51587 -9.10063,42.63361 c -0.32795,1.55777 -0.49193,2.95156 -0.49193,4.18138 0,6.14907 3.85343,8.93666 10.16648,8.93666 6.39503,0 15.65965,-10.90437 19.43108,-14.6758 l -2.78758,0 c -3.2795,2.6236 -7.54287,7.21492 -10.82238,7.21492 -3.19751,0 -4.09938,-1.22982 -4.09938,-3.03355 0,-0.6559 0.16397,-1.39379 0.40994,-2.62361 l 9.42858,-44.27336 -12.13418,1.63975"
             inkscape:connector-curvature="0" />
          <path
             id="path3048"
             style="font-size:81.98770905px;font-variant:normal;font-stretch:normal;letter-spacing:-5.12423182px;fill:#ffffff;font-family:'Lobster 1.3';-inkscape-font-specification:'Lobster 1.3'"
             d="m 142.68428,406.51587 -9.10064,42.63361 c -0.32795,1.55777 -0.49193,2.95156 -0.49193,4.18138 0,6.14907 3.85343,8.93666 10.16648,8.93666 6.39504,0 15.65966,-10.90437 19.43109,-14.6758 l -2.78758,0 c -3.27951,2.6236 -7.54288,7.21492 -10.82238,7.21492 -3.19752,0 -4.09939,-1.22982 -4.09939,-3.03355 0,-0.6559 0.16398,-1.39379 0.40994,-2.62361 l 9.42859,-44.27336 -12.13418,1.63975"
             inkscape:connector-curvature="0" />
          <path
             id="path3050"
             style="font-size:81.98770905px;font-variant:normal;font-stretch:normal;letter-spacing:-5.12423182px;fill:#ffffff;font-family:'Lobster 1.3';-inkscape-font-specification:'Lobster 1.3'"
             d="m 157.00394,421.27366 -5.73914,27.87582 c -0.32795,1.55777 -0.49193,2.86957 -0.49193,4.18138 0,6.14907 3.77145,8.93666 10.16648,8.93666 3.27951,0 7.46089,-2.95156 11.15033,-6.31306 l -1.22982,5.65716 c -7.78882,2.29565 -14.18387,4.6733 -14.18387,12.29815 0,5.3292 4.6733,8.85467 9.67455,8.85467 5.41118,0 12.46213,-2.21368 14.92176,-13.93791 l 10.0025,-47.55287 -11.88822,0 -6.39504,30.25347 c -2.13167,1.80373 -4.34535,3.27951 -6.23106,3.27951 -3.19752,0 -4.09939,-1.22982 -4.09939,-3.03355 0,-0.81988 0.16398,-1.72174 0.40994,-2.62361 l 5.9851,-27.87582 -12.05219,0 m 4.18137,51.48828 c 0,-4.42733 3.93542,-6.80498 9.10064,-8.52672 l -0.98385,4.83728 c -0.98385,4.83727 -3.19753,6.39504 -4.83728,6.39504 -1.80373,0 -3.27951,-1.55777 -3.27951,-2.7056"
             inkscape:connector-curvature="0" />
          <path
             id="path3052"
             style="font-size:81.98770905px;font-variant:normal;font-stretch:normal;letter-spacing:-5.12423182px;fill:#ffffff;font-family:'Lobster 1.3';-inkscape-font-specification:'Lobster 1.3'"
             d="m 221.0389,406.84383 c 0,-0.90187 -0.6559,-1.14783 -1.55777,-1.14783 -1.55776,0 -3.19752,1.80373 -3.19752,3.36149 0,0.90187 0.32796,1.63976 1.31181,1.80373 -0.40994,4.0174 -2.21367,8.85468 -4.91927,8.85468 -1.9677,0 -3.36149,-0.7379 -3.36149,-3.3615 0,-3.52547 1.72174,-12.62611 6.39504,-12.62611 1.06584,0 1.72174,0.57392 2.13168,1.55777 0.98385,-0.32795 2.13168,-0.81988 2.13168,-2.13168 0,-1.14783 -2.21367,-1.96771 -4.50932,-1.96771 -6.47703,0 -12.46214,4.7553 -12.46214,15.57767 0,5.24721 2.37765,7.2969 7.46089,7.2969 4.42733,0 10.08448,-4.6733 10.57641,-13.85592 1.88572,-1.06584 2.7056,-3.11553 3.19752,-4.6733 l -0.49193,-0.90186 c -1.06583,1.14782 -1.47578,1.88572 -2.70559,2.6236 l 0,-0.40993" />
        </g>
      </g>
    </g>
  </g>
</svg>
